<svg xmlns="http://www.w3.org/2000/svg" viewBox="0 0 512 512" width="512" height="512" role="img" aria-label="AEGIS app icon">
  <title>AEGIS app icon</title>
  <defs>
    <radialGradient id="glow" cx="50%" cy="40%" r="62%">
      <stop offset="0" stop-color="#ff2d6f" stop-opacity="0.38"/>
      <stop offset="0.55" stop-color="#7c4dff" stop-opacity="0.12"/>
      <stop offset="1" stop-color="#0b0b0c" stop-opacity="0"/>
    </radialGradient>
    <linearGradient id="afill" x1="3.4" y1="1.6" x2="20.6" y2="22.4" gradientUnits="userSpaceOnUse">
      <stop offset="0" stop-color="#ff6a1a"/><stop offset="0.52" stop-color="#ff2d6f"/><stop offset="1" stop-color="#7c4dff"/>
    </linearGradient>
    <mask id="acut" maskUnits="userSpaceOnUse" x="0" y="0" width="24" height="24">
      <rect width="24" height="24" fill="#fff"/>
      <path d="M7.7 16.4 12 6.7l4.3 9.7" fill="none" stroke="#000" stroke-width="2.3" stroke-linecap="round" stroke-linejoin="round"/>
      <circle cx="12" cy="13.6" r="1.05" fill="#000"/>
    </mask>
  </defs>
  <rect width="512" height="512" rx="112" fill="#0b0b0c"/>
  <rect width="512" height="512" rx="112" fill="url(#glow)"/>
  <rect x="1.5" y="1.5" width="509" height="509" rx="110.5" fill="none" stroke="#ffffff" stroke-opacity="0.08" stroke-width="3"/>
  <g transform="translate(88 84) scale(14)"><path d="M12 1.6C14.9 2.9 17.7 3.7 20.6 4.1V11.2C20.6 16.3 17.2 20.4 12 22.4C6.8 20.4 3.4 16.3 3.4 11.2V4.1C6.3 3.7 9.1 2.9 12 1.6Z" fill="url(#afill)" mask="url(#acut)"/></g>
</svg>
